<svg xmlns="http://www.w3.org/2000/svg" width="1200" height="230" viewBox="0 0 1200 230" role="img" aria-labelledby="title desc">
  <title id="title">Shonen Lab team power-ups</title><desc id="desc">Cards for product management, product engineering, software engineering, QA, and analytics.</desc>
  <defs><linearGradient id="bg" x1="0" y1="0" x2="1" y2="1"><stop stop-color="#0b1026"/><stop offset="1" stop-color="#19114a"/></linearGradient><filter id="s"><feDropShadow dx="0" dy="7" stdDeviation="6" flood-color="#020617" flood-opacity=".65"/></filter></defs>
  <rect width="1200" height="230" rx="26" fill="url(#bg)"/>
  <g font-family="system-ui, sans-serif" text-anchor="middle" filter="url(#s)">
    <g transform="translate(35 28)"><rect width="210" height="174" rx="22" fill="#7c3aed"/><circle cx="105" cy="52" r="31" fill="#ede9fe"/><path d="M105 30l9 17l19 3l-14 14l4 19l-18-9l-18 9l4-19l-14-14l19-3z" fill="#7c3aed"/><text x="105" y="116" fill="#fff" font-size="25" font-weight="900">PM</text><text x="105" y="145" fill="#ede9fe" font-size="14" font-weight="700">VISION COMPASS</text></g>
    <g transform="translate(265 28)"><rect width="210" height="174" rx="22" fill="#0891b2"/><circle cx="105" cy="52" r="31" fill="#cffafe"/><path d="M90 52h30M105 37v30M94 41l22 22M116 41L94 63" stroke="#0891b2" stroke-width="6" stroke-linecap="round"/><text x="105" y="116" fill="#fff" font-size="25" font-weight="900">PE</text><text x="105" y="145" fill="#cffafe" font-size="14" font-weight="700">BRIDGE BUILDER</text></g>
    <g transform="translate(495 28)"><rect width="210" height="174" rx="22" fill="#2563eb"/><circle cx="105" cy="52" r="31" fill="#dbeafe"/><path d="M91 39L78 52l13 13M119 39l13 13l-13 13M111 34l-12 36" fill="none" stroke="#2563eb" stroke-width="6" stroke-linecap="round"/><text x="105" y="116" fill="#fff" font-size="25" font-weight="900">SWE</text><text x="105" y="145" fill="#dbeafe" font-size="14" font-weight="700">CODE CRAFTER</text></g>
    <g transform="translate(725 28)"><rect width="210" height="174" rx="22" fill="#16a34a"/><circle cx="105" cy="52" r="31" fill="#dcfce7"/><path d="M89 52l11 11l22-25" fill="none" stroke="#16a34a" stroke-width="7" stroke-linecap="round"/><text x="105" y="116" fill="#fff" font-size="25" font-weight="900">QA</text><text x="105" y="145" fill="#dcfce7" font-size="14" font-weight="700">QUALITY GUARDIAN</text></g>
    <g transform="translate(955 28)"><rect width="210" height="174" rx="22" fill="#d97706"/><circle cx="105" cy="52" r="31" fill="#fef3c7"/><path d="M84 66V53h11v13M100 66V42h11v24M116 66V34h11v32" fill="#d97706"/><text x="105" y="116" fill="#fff" font-size="25" font-weight="900">DATA</text><text x="105" y="145" fill="#fef3c7" font-size="14" font-weight="700">SIGNAL READER</text></g>
  </g>
</svg>
